<?xml version="1.0" encoding="UTF-8"?>
<svg xmlns="http://www.w3.org/2000/svg" xmlns:xlink="http://www.w3.org/1999/xlink" width="1024px" height="1024px" viewBox="0 0 1024 1024" version="1.1">
<g id="surface1">
<path style=" stroke:none;fill-rule:nonzero;fill:rgb(69.803923%,82.745099%,99.607843%);fill-opacity:1;" d="M 254 100 C 315.042969 98.058594 371.542969 114.617188 416.78125 156.882812 C 440.328125 179.675781 468.890625 218.367188 471.125 252.375 C 469.871094 260.886719 467.15625 267.535156 463.359375 275.210938 C 461.511719 281.722656 462.804688 284.082031 466 290 C 468.964844 294.339844 471.980469 298.546875 475.125 302.75 C 482.546875 312.90625 489.5 323.230469 496 334 C 496.746094 335.21875 497.492188 336.441406 498.261719 337.699219 C 504.675781 348.480469 509.898438 359.261719 508 372 C 502.261719 379.214844 496.949219 383.65625 488 386 C 483.332031 386.054688 478.667969 386.058594 474 386 C 474.433594 387.859375 474.867188 389.71875 475.3125 391.632812 C 476.148438 395.339844 476.148438 395.339844 477 399.125 C 477.835938 402.78125 477.835938 402.78125 478.6875 406.507812 C 480.601562 417.441406 480.488281 427.222656 478 438 C 477.304688 441.996094 476.640625 445.996094 476 450 C 475.257812 453.15625 475.257812 453.15625 474.5 456.375 C 473.90625 465.441406 476.019531 472.109375 478.570312 480.734375 C 482.136719 493.875 479.875 505.921875 474 518 C 461.058594 531.28125 444.097656 532.261719 426.375 532.5 C 405.191406 532.394531 384.703125 528.214844 364 524 C 340.488281 571.179688 334.167969 624.660156 348 676 C 351.4375 685.128906 355.304688 692.277344 361.375 699.875 C 399.996094 752.027344 436 852.074219 436 918 C 302.019531 918 168.039062 918 30 918 C 30 897.742188 30 897.742188 31.0625 890.101562 C 31.296875 888.371094 31.535156 886.640625 31.777344 884.859375 C 32.167969 882.125 32.167969 882.125 32.570312 879.335938 C 32.84375 877.378906 33.117188 875.425781 33.394531 873.410156 C 34.289062 867.0625 35.203125 860.71875 36.125 854.375 C 36.4375 852.199219 36.75 850.027344 37.074219 847.789062 C 64.539062 657.847656 64.539062 657.847656 118 592 C 136.710938 559.042969 154.136719 518.09375 146.742188 479.421875 C 139.703125 454.265625 130.179688 435.125 111.101562 417.148438 C 79.980469 385.742188 64.085938 339.828125 63.929688 296.171875 C 64.777344 245.265625 84.074219 199.136719 120.441406 163.261719 C 155.417969 130.335938 200.277344 114.613281 248.054688 115.789062 C 250.015625 115.859375 251.980469 115.929688 254 116 C 254 110.71875 254 105.441406 254 100 Z M 254 100 "/>
<path style=" stroke:none;fill-rule:nonzero;fill:rgb(39.215687%,70.980394%,95.294118%);fill-opacity:1;" d="M 726.75 115.5 C 728.207031 115.5 729.664062 115.496094 731.167969 115.496094 C 759.109375 115.535156 786.367188 117.722656 814 122 C 816.390625 122.363281 818.785156 122.730469 821.25 123.105469 C 828.71875 124.269531 836.171875 125.492188 843.625 126.75 C 845.878906 127.121094 848.128906 127.488281 850.453125 127.867188 C 882.609375 133.621094 907.625 145.148438 927.1875 171.90625 C 936 184.734375 936 184.734375 936 190 C 937.453125 189.648438 938.90625 189.292969 940.40625 188.929688 C 953.15625 186.808594 964.910156 190.6875 975.75 197.375 C 986.035156 204.804688 991.472656 213.472656 994 226 C 998.648438 285.480469 981.5 349.9375 943.046875 396.421875 C 933.136719 407.375 923.707031 414.519531 910 420 C 909.339844 456.300781 908.679688 492.601562 908 530 C 922.519531 530 937.039062 530 952 530 C 972.613281 539.160156 972.613281 539.160156 978.625 544.375 C 979.855469 545.394531 981.085938 546.410156 982.351562 547.460938 C 995.976562 564.414062 995.136719 583.039062 995.003906 603.710938 C 995.011719 607.113281 995.023438 610.511719 995.035156 613.914062 C 995.0625 623.109375 995.042969 632.300781 995.007812 641.496094 C 994.980469 651.125 994.992188 660.753906 995 670.386719 C 995.007812 686.542969 994.980469 702.699219 994.933594 718.855469 C 994.878906 737.542969 994.875 756.230469 994.898438 774.917969 C 994.921875 792.90625 994.910156 810.890625 994.878906 828.875 C 994.871094 836.53125 994.871094 844.183594 994.878906 851.839844 C 994.886719 860.835938 994.867188 869.835938 994.824219 878.835938 C 994.8125 882.140625 994.8125 885.449219 994.824219 888.753906 C 994.835938 893.257812 994.808594 897.761719 994.773438 902.265625 C 994.769531 906.046875 994.769531 906.046875 994.761719 909.910156 C 994 916 994 916 991.328125 919.734375 C 984.21875 924.578125 977.597656 924.265625 969.273438 924.292969 C 967.976562 924.300781 966.679688 924.308594 965.34375 924.316406 C 960.992188 924.339844 956.640625 924.347656 952.285156 924.355469 C 949.167969 924.367188 946.050781 924.378906 942.933594 924.394531 C 932.691406 924.4375 922.445312 924.457031 912.203125 924.476562 C 908.675781 924.484375 905.152344 924.492188 901.625 924.5 C 885.066406 924.539062 868.507812 924.566406 851.949219 924.585938 C 832.824219 924.605469 813.703125 924.65625 794.582031 924.738281 C 779.804688 924.796875 765.027344 924.828125 750.25 924.835938 C 741.421875 924.839844 732.59375 924.855469 723.765625 924.90625 C 715.464844 924.953125 707.160156 924.960938 698.855469 924.941406 C 695.808594 924.941406 692.761719 924.953125 689.714844 924.980469 C 685.554688 925.015625 681.394531 925 677.234375 924.976562 C 674.90625 924.980469 672.578125 924.984375 670.179688 924.988281 C 662.648438 923.785156 659.339844 921.359375 654 916 C 651.542969 908.625 651.703125 901.8125 651.710938 894.132812 C 651.703125 892.515625 651.695312 890.898438 651.6875 889.230469 C 651.671875 883.863281 651.667969 878.492188 651.664062 873.125 C 651.65625 869.367188 651.652344 865.613281 651.644531 861.855469 C 651.632812 853.953125 651.628906 846.050781 651.628906 838.148438 C 651.628906 828.128906 651.601562 818.109375 651.566406 808.089844 C 651.546875 800.308594 651.542969 792.527344 651.542969 784.746094 C 651.539062 781.0625 651.53125 777.375 651.515625 773.6875 C 651.445312 754.863281 651.84375 736.253906 653.761719 717.515625 C 653.917969 716.007812 654.070312 714.5 654.226562 712.945312 C 660.273438 659.863281 690.472656 609.269531 731.636719 575.777344 C 744.921875 565.40625 758.972656 557.597656 774 550 C 774 534.160156 774 518.320312 774 502 C 770.039062 501.339844 766.078125 500.679688 762 500 C 735.089844 488.851562 712.445312 467.078125 700.375 440.625 C 690.367188 413.742188 691.425781 385.605469 691.589844 357.335938 C 691.625 350.75 691.628906 344.164062 691.628906 337.578125 C 691.640625 333.316406 691.652344 329.058594 691.664062 324.796875 C 691.667969 322.863281 691.667969 320.933594 691.671875 318.941406 C 691.753906 306.847656 692.546875 295.015625 693.925781 282.992188 C 694.46875 277.589844 694.46875 277.589844 690.382812 272.421875 C 688.648438 271.210938 686.914062 270 685.125 268.75 C 658.464844 247.941406 626.445312 204.253906 620 170 C 618.832031 160 619.023438 154.167969 624.75 145.75 C 640.996094 126.484375 666.699219 119.09375 691.015625 116.363281 C 702.90625 115.5 714.832031 115.511719 726.75 115.5 Z M 726.75 115.5 "/>
<path style=" stroke:none;fill-rule:nonzero;fill:rgb(69.803923%,82.745099%,99.607843%);fill-opacity:1;" d="M 314 510 C 321.230469 516.601562 322.503906 522.789062 323.125 532.375 C 322.890625 554.203125 309.285156 572.632812 298.328125 590.738281 C 297.476562 592.144531 296.625 593.550781 295.75 595 C 294.902344 596.398438 294.058594 597.792969 293.183594 599.234375 C 283.25 616.027344 275.28125 634.675781 272 654 C 273.679688 654.257812 273.679688 654.257812 275.390625 654.523438 C 297.394531 658.378906 319.277344 665.632812 338 678 C 339.617188 679.058594 341.238281 680.113281 342.90625 681.203125 C 400.183594 722.492188 414.035156 823.515625 429.625 887.476562 C 430.039062 889.167969 430.453125 890.859375 430.878906 892.601562 C 431.453125 894.984375 431.453125 894.984375 432.039062 897.417969 C 432.371094 898.789062 432.703125 900.164062 433.046875 901.578125 C 434.21875 907.015625 435.085938 912.515625 436 918 C 302.019531 918 168.039062 918 30 918 C 30 897.742188 30 897.742188 31.0625 890.101562 C 31.296875 888.371094 31.535156 886.640625 31.777344 884.859375 C 32.039062 883.035156 32.300781 881.214844 32.570312 879.335938 C 32.84375 877.378906 33.117188 875.425781 33.394531 873.410156 C 34.289062 867.0625 35.203125 860.71875 36.125 854.375 C 36.4375 852.199219 36.75 850.027344 37.074219 847.789062 C 48.589844 768.144531 62.582031 692.914062 99.625 620.75 C 100.535156 618.960938 101.449219 617.167969 102.386719 615.324219 C 103.699219 612.835938 103.699219 612.835938 105.039062 610.296875 C 105.804688 608.835938 106.570312 607.375 107.359375 605.871094 C 110.359375 601.472656 113.605469 598.953125 118 596 C 118.605469 597.640625 119.210938 599.28125 119.835938 600.96875 C 120.671875 603.125 121.511719 605.28125 122.375 607.5 C 123.1875 609.632812 124 611.769531 124.835938 613.96875 C 129.144531 622.179688 134.089844 626.425781 142.679688 629.882812 C 158.71875 633.71875 174.863281 635.949219 191.21875 637.996094 C 193.996094 638.347656 193.996094 638.347656 196.828125 638.703125 C 199.332031 639.007812 199.332031 639.007812 201.886719 639.316406 C 206 640 206 640 210 642 C 210.246094 640.457031 210.496094 638.910156 210.75 637.320312 C 211.730469 631.570312 212.777344 625.847656 213.875 620.117188 C 217.679688 600.078125 221.230469 580.425781 222 560 C 224.640625 559.339844 227.28125 558.679688 230 558 C 231.273438 587.738281 225.773438 615.382812 218 644 C 220.214844 644.148438 220.214844 644.148438 222.476562 644.296875 C 236.539062 645.332031 250.179688 647.199219 264 650 C 264.222656 647.980469 264.449219 645.960938 264.679688 643.882812 C 269.738281 613.6875 288.511719 585.855469 305.109375 560.804688 C 311.457031 550.253906 312.488281 541.824219 312.125 529.625 C 311.761719 514.476562 311.761719 514.476562 314 510 Z M 314 510 "/>
<path style=" stroke:none;fill-rule:nonzero;fill:rgb(69.803923%,82.352942%,99.215686%);fill-opacity:1;" d="M 280.296875 238.710938 C 284.386719 241.632812 288.195312 244.71875 292 248 C 293.238281 249.027344 294.476562 250.050781 295.75 251.109375 C 306.089844 260.425781 312.855469 270.355469 316 284 C 315.828125 287.488281 315.535156 290.96875 315.15625 294.441406 C 313.363281 311.777344 311.753906 327.808594 322.605469 342.433594 C 331.449219 352.523438 341.402344 361.324219 351.5 370.125 C 356.578125 374.769531 361.621094 379.445312 366.660156 384.132812 C 369.78125 387.011719 372.929688 389.859375 376.117188 392.667969 C 386.410156 401.851562 395.09375 410.3125 396.78125 424.617188 C 396.6875 426.683594 396.59375 428.746094 396.5 430.875 C 396.429688 432.976562 396.355469 435.078125 396.28125 437.242188 C 396.1875 438.8125 396.09375 440.382812 396 442 C 397.933594 441.445312 399.867188 440.890625 401.859375 440.320312 C 426.359375 433.4375 448.464844 431.667969 474 432 C 474 433.980469 474 435.960938 474 438 C 471.53125 438.074219 469.058594 438.148438 466.515625 438.226562 C 443.242188 439.078125 420.867188 441.609375 398 446 C 398.144531 448.210938 398.289062 450.417969 398.4375 452.695312 C 400.011719 478.480469 400.226562 504.171875 400 530 C 395.875 529.378906 391.75 528.753906 387.625 528.125 C 385.328125 527.777344 383.03125 527.429688 380.664062 527.070312 C 375.074219 526.171875 369.542969 525.160156 364 524 C 339.707031 572.746094 336.363281 623.128906 348 676 C 348.691406 679.996094 349.367188 683.996094 350 688 C 348.667969 687.105469 347.335938 686.210938 345.960938 685.289062 C 322.4375 669.859375 298.902344 661.410156 272 654 C 274.8125 625.917969 288.101562 603.386719 302.65625 579.707031 C 316.402344 558.136719 316.402344 558.136719 320.75 533.5 C 320.710938 530.578125 320.710938 530.578125 320.671875 527.59375 C 319.976562 521.792969 318.417969 517.296875 316 512 C 315.339844 512.660156 314.679688 513.320312 314 514 C 314.121094 517.445312 314.253906 520.890625 314.4375 524.332031 C 315.558594 550.09375 304.71875 566.019531 290.804688 587 C 278.371094 606.160156 269.582031 627.882812 264 650 C 253.285156 650.339844 243.613281 649.128906 233.125 647 C 231.660156 646.714844 230.199219 646.425781 228.691406 646.132812 C 225.125 645.433594 221.5625 644.71875 218 644 C 219.097656 634.316406 220.558594 625.101562 222.875 615.625 C 227.097656 596.644531 228.457031 577.351562 230 558 C 228.019531 558.660156 226.039062 559.320312 224 560 C 223.78125 562.203125 223.5625 564.410156 223.335938 566.679688 C 221.683594 582.703125 219.773438 598.628906 217 614.5 C 216.761719 615.878906 216.527344 617.257812 216.28125 618.679688 C 214.824219 626.742188 212.65625 634.261719 210 642 C 201.746094 640.996094 193.492188 639.964844 185.242188 638.910156 C 182.445312 638.558594 179.644531 638.210938 176.84375 637.871094 C 139.589844 633.339844 139.589844 633.339844 128.375 622.625 C 122.398438 613.578125 117.621094 605.507812 118.382812 594.445312 C 120.375 586.5 123.757812 580.046875 127.625 572.875 C 144.957031 539.3125 153.5625 502.300781 142.578125 465.46875 C 138.582031 453.886719 133.464844 442.964844 128 432 C 134.136719 434.808594 139.566406 438.347656 145.132812 442.144531 C 165.859375 456.136719 187.589844 465.089844 212.046875 470.71875 C 213.351562 471.140625 214.65625 471.5625 216 472 C 226.757812 493.515625 222.441406 526.660156 222 550 C 224.640625 550 227.28125 550 230 550 C 228.839844 524.65625 227.542969 499.324219 226 474 C 235.898438 474 245.800781 474 256 474 C 276.753906 524.117188 276.753906 524.117188 270 541 C 269.339844 541.988281 268.679688 542.980469 268 544 C 271.96875 543.464844 271.96875 543.464844 276 542 C 282.757812 521.726562 274.335938 502.953125 267.328125 483.894531 C 265.988281 479.964844 264.949219 476.039062 264 472 C 268.738281 471.050781 273.480469 470.105469 278.21875 469.15625 C 281.082031 468.582031 281.082031 468.582031 284 468 C 289.441406 466.910156 294.886719 465.824219 300.328125 464.734375 C 301.539062 464.492188 302.75 464.25 304 464 C 303.011719 461.691406 302.019531 459.378906 301 457 C 297.6875 448.292969 297.503906 441.25 298 432 C 296.238281 432.554688 294.476562 433.109375 292.664062 433.679688 C 290.339844 434.402344 288.019531 435.128906 285.625 435.875 C 283.328125 436.59375 281.03125 437.3125 278.664062 438.054688 C 243.097656 448.4375 204.222656 441.230469 172.15625 423.691406 C 162.339844 417.925781 153.503906 411.3125 145 403.75 C 143.90625 402.792969 142.816406 401.835938 141.6875 400.851562 C 136.234375 395.640625 133.988281 391.960938 131.984375 384.640625 C 132 378 132 378 137.25 372 C 166.046875 350.515625 166.046875 350.515625 182 352 C 181.15625 350.214844 180.3125 348.433594 179.445312 346.59375 C 178.351562 344.253906 177.253906 341.910156 176.125 339.5 C 175.035156 337.179688 173.945312 334.859375 172.820312 332.46875 C 165.351562 315.335938 166.363281 297.242188 171.804688 279.53125 C 180.960938 256.464844 196.3125 242.078125 218.351562 231.453125 C 239.21875 223.140625 261.734375 227 280.296875 238.710938 Z M 280.296875 238.710938 "/>
<path style=" stroke:none;fill-rule:nonzero;fill:rgb(15.294118%,17.647059%,30.980393%);fill-opacity:1;" d="M 726.75 115.5 C 728.207031 115.5 729.664062 115.496094 731.167969 115.496094 C 759.109375 115.535156 786.367188 117.722656 814 122 C 816.390625 122.363281 818.785156 122.730469 821.25 123.105469 C 828.71875 124.269531 836.171875 125.492188 843.625 126.75 C 845.878906 127.121094 848.128906 127.488281 850.453125 127.867188 C 882.609375 133.621094 907.625 145.148438 927.1875 171.90625 C 936 184.734375 936 184.734375 936 190 C 937.453125 189.648438 938.90625 189.292969 940.40625 188.929688 C 953.15625 186.808594 964.910156 190.6875 975.75 197.375 C 986.035156 204.804688 991.472656 213.472656 994 226 C 998.648438 285.457031 981.515625 349.972656 943.039062 396.421875 C 933.085938 407.441406 922.785156 416.589844 908 420 C 896.847656 408.453125 891.628906 392.992188 891 377.125 C 891.402344 364.171875 894.402344 351.804688 897.117188 339.183594 C 900.183594 324.398438 902.6875 309.027344 900 294 C 896.242188 289.378906 893.304688 286.652344 888 284 C 875.128906 283.011719 875.128906 283.011719 862 282 C 862 303.78125 862 325.558594 862 348 C 849.414062 348 847.265625 347.492188 838 340 C 830.542969 332.503906 826.324219 326.273438 825.773438 315.601562 C 825.789062 313.277344 825.789062 313.277344 825.804688 310.90625 C 825.8125 308.375 825.8125 308.375 825.824219 305.789062 C 825.847656 303.171875 825.847656 303.171875 825.875 300.5 C 825.882812 298.722656 825.894531 296.949219 825.902344 295.117188 C 825.925781 290.746094 825.957031 286.371094 826 282 C 824.132812 282.242188 822.261719 282.484375 820.335938 282.734375 C 811.5625 283.859375 802.78125 284.9375 794 286 C 791.628906 286.289062 791.628906 286.289062 789.207031 286.582031 C 731.316406 293.496094 731.316406 293.496094 708 284 C 706.359375 283.367188 704.71875 282.730469 703.03125 282.078125 C 676.414062 270.421875 661.113281 245.585938 646 222 C 645.144531 220.675781 644.289062 219.347656 643.40625 217.984375 C 616.425781 175.804688 616.425781 175.804688 620 154 C 627.855469 137.832031 642.515625 129.335938 658.953125 123.554688 C 681.710938 116.757812 703.171875 115.519531 726.75 115.5 Z M 726.75 115.5 "/>
<path style=" stroke:none;fill-rule:nonzero;fill:rgb(99.215686%,70.980394%,61.56863%);fill-opacity:1;" d="M 696 278 C 697.566406 278.535156 699.136719 279.074219 700.75 279.625 C 704.339844 280.800781 704.339844 280.800781 708 282 C 709.40625 282.527344 710.816406 283.058594 712.265625 283.601562 C 736.65625 292.09375 763.070312 287.6875 788.25 285 C 792.402344 284.566406 796.554688 284.140625 800.707031 283.714844 C 804.417969 283.335938 808.132812 282.941406 811.84375 282.550781 C 818 282 818 282 826 282 C 826.113281 285.871094 826.113281 285.871094 826.226562 289.820312 C 826.359375 293.253906 826.492188 296.691406 826.625 300.125 C 826.671875 301.820312 826.714844 303.515625 826.761719 305.261719 C 827.351562 319.179688 829.441406 329.230469 839.375 339.625 C 847.011719 345.195312 847.011719 345.195312 862 348 C 862 326.21875 862 304.441406 862 282 C 891.53125 282 891.53125 282 900 290 C 907.5625 305.121094 901.421875 328.683594 898 344.375 C 892.417969 370.433594 891.878906 389.390625 904 414 C 905.320312 415.320312 906.640625 416.640625 908 418 C 908.480469 422.808594 908.480469 422.808594 908.453125 428.917969 C 908.453125 431.199219 908.453125 433.484375 908.453125 435.835938 C 908.433594 438.308594 908.410156 440.78125 908.390625 443.328125 C 908.386719 445.851562 908.378906 448.378906 908.375 450.980469 C 908.355469 457.691406 908.320312 464.40625 908.273438 471.121094 C 908.234375 477.972656 908.214844 484.820312 908.195312 491.671875 C 908.152344 505.113281 908.085938 518.558594 908 532 C 906.328125 532.238281 904.65625 532.476562 902.929688 532.71875 C 889.855469 534.640625 877.128906 536.867188 864.398438 540.414062 C 862.867188 540.828125 861.339844 541.242188 859.761719 541.671875 C 856.566406 542.539062 853.371094 543.414062 850.179688 544.296875 C 845.40625 545.617188 840.628906 546.914062 835.847656 548.207031 C 808.792969 555.570312 781.921875 563.484375 755.625 573.25 C 754.039062 573.824219 752.457031 574.394531 750.824219 574.984375 C 744.15625 577.445312 738.25 579.847656 732.148438 583.546875 C 730.78125 584.355469 729.410156 585.164062 728 586 C 726.679688 585.339844 725.359375 584.679688 724 584 C 738.832031 568.878906 755.484375 559.957031 774 550 C 774 534.160156 774 518.320312 774 502 C 768.058594 501.011719 768.058594 501.011719 762 500 C 735.089844 488.851562 712.445312 467.078125 700.375 440.625 C 690.34375 413.675781 691.425781 385.457031 691.589844 357.117188 C 691.625 350.484375 691.628906 343.855469 691.628906 337.226562 C 691.640625 332.953125 691.648438 328.679688 691.664062 324.40625 C 691.667969 322.453125 691.667969 320.5 691.671875 318.488281 C 691.890625 286.21875 691.890625 286.21875 696 278 Z M 696 278 "/>
<path style=" stroke:none;fill-rule:nonzero;fill:rgb(94.117647%,30.588236%,35.294119%);fill-opacity:1;" d="M 128 432 C 134.136719 434.808594 139.566406 438.347656 145.132812 442.144531 C 165.859375 456.136719 187.589844 465.089844 212.046875 470.71875 C 214.003906 471.351562 214.003906 471.351562 216 472 C 226.757812 493.515625 222.441406 526.660156 222 550 C 224.640625 550 227.28125 550 230 550 C 228.839844 524.65625 227.542969 499.324219 226 474 C 235.898438 474 245.800781 474 256 474 C 276.753906 524.117188 276.753906 524.117188 270 541 C 269.339844 541.988281 268.679688 542.980469 268 544 C 271.96875 543.464844 271.96875 543.464844 276 542 C 282.757812 521.726562 274.335938 502.953125 267.328125 483.894531 C 265.988281 479.964844 264.949219 476.039062 264 472 C 277.96875 469.152344 291.964844 466.507812 306 464 C 306.632812 465.355469 307.269531 466.710938 307.921875 468.109375 C 320.796875 493.785156 338.621094 507.988281 364 520 C 361.433594 528.007812 358.496094 535.675781 355.125 543.375 C 337.367188 585.59375 338.28125 631.839844 348 676 C 348.691406 679.996094 349.367188 683.996094 350 688 C 348.667969 687.105469 347.335938 686.210938 345.960938 685.289062 C 322.4375 669.859375 298.902344 661.410156 272 654 C 274.8125 625.917969 288.101562 603.386719 302.65625 579.707031 C 316.402344 558.136719 316.402344 558.136719 320.75 533.5 C 320.710938 530.578125 320.710938 530.578125 320.671875 527.59375 C 319.976562 521.792969 318.417969 517.296875 316 512 C 315.339844 512.660156 314.679688 513.320312 314 514 C 314.121094 517.445312 314.253906 520.890625 314.4375 524.332031 C 315.558594 550.09375 304.71875 566.019531 290.804688 587 C 278.371094 606.160156 269.582031 627.882812 264 650 C 253.285156 650.339844 243.613281 649.128906 233.125 647 C 231.660156 646.714844 230.199219 646.425781 228.691406 646.132812 C 225.125 645.433594 221.5625 644.71875 218 644 C 219.097656 634.316406 220.558594 625.101562 222.875 615.625 C 227.097656 596.644531 228.457031 577.351562 230 558 C 228.019531 558.660156 226.039062 559.320312 224 560 C 223.78125 562.203125 223.5625 564.410156 223.335938 566.679688 C 221.683594 582.703125 219.773438 598.628906 217 614.5 C 216.761719 615.878906 216.527344 617.257812 216.28125 618.679688 C 214.824219 626.742188 212.65625 634.261719 210 642 C 201.746094 640.996094 193.492188 639.964844 185.242188 638.910156 C 182.445312 638.558594 179.644531 638.210938 176.84375 637.871094 C 139.589844 633.339844 139.589844 633.339844 128.375 622.625 C 122.398438 613.578125 117.621094 605.507812 118.382812 594.445312 C 120.375 586.5 123.757812 580.046875 127.625 572.875 C 144.957031 539.3125 153.5625 502.300781 142.578125 465.46875 C 138.582031 453.886719 133.464844 442.964844 128 432 Z M 128 432 "/>
<path style=" stroke:none;fill-rule:nonzero;fill:rgb(99.215686%,76.47059%,0.392157%);fill-opacity:1;" d="M 254 116 C 254 130.519531 254 145.039062 254 160 C 248.058594 160.660156 242.121094 161.320312 236 162 C 231.875 166.511719 231.875 166.511719 230.125 172.5 C 229.40625 174.40625 228.6875 176.316406 227.945312 178.28125 C 227.304688 180.167969 226.660156 182.054688 226 184 C 222.46875 193.644531 222.46875 193.644531 218.375 196.75 C 207.25 199.929688 196.917969 192.78125 187.242188 187.921875 C 181.339844 185.757812 179.757812 185.902344 174 188 C 168.671875 192.050781 164.09375 196.886719 159.375 201.625 C 157.402344 203.515625 157.402344 203.515625 155.386719 205.441406 C 154.152344 206.667969 152.917969 207.898438 151.648438 209.164062 C 149.949219 210.839844 149.949219 210.839844 148.214844 212.554688 C 145.546875 215.898438 145.546875 215.898438 146.488281 220.082031 C 149.332031 227.457031 152.855469 234.539062 156.273438 241.664062 C 158.566406 250.085938 157.8125 254.164062 154 262 C 148.675781 265.035156 144.574219 266.917969 138.875 268.75 C 136.121094 269.722656 133.367188 270.695312 130.617188 271.671875 C 128.433594 272.441406 126.25 273.207031 124 274 C 121.5 276.054688 121.5 276.054688 121.773438 280.449219 C 121.789062 283.324219 121.789062 283.324219 121.804688 286.257812 C 121.8125 289.359375 121.8125 289.359375 121.824219 292.527344 C 121.839844 294.703125 121.859375 296.882812 121.875 299.125 C 121.882812 301.308594 121.894531 303.496094 121.902344 305.746094 C 121.925781 311.164062 121.957031 316.582031 122 322 C 124.097656 322.75 126.191406 323.5 128.351562 324.273438 C 131.109375 325.304688 133.867188 326.339844 136.625 327.375 C 138.003906 327.863281 139.386719 328.351562 140.808594 328.855469 C 147.730469 331.496094 151.328125 333.136719 155.976562 339.109375 C 159.300781 347.140625 156.726562 351.988281 153.875 359.875 C 148.6875 368.074219 141.976562 372.65625 134 378 C 134.1875 387.253906 135.367188 392.261719 141.875 399 C 173.601562 427.710938 211.621094 441.9375 254.382812 440.601562 C 263.527344 439.878906 271.921875 438.113281 280.703125 435.507812 C 286.433594 433.875 292.113281 432.890625 298 432 C 298.628906 435.082031 299.25 438.167969 299.875 441.25 C 300.398438 443.824219 300.398438 443.824219 300.929688 446.453125 C 302.054688 452.289062 303.046875 458.136719 304 464 C 300.34375 465.363281 296.675781 466.691406 293 468 C 290.957031 468.742188 288.917969 469.484375 286.8125 470.25 C 278.804688 472.308594 272.238281 472.285156 264 472 C 264.820312 474.171875 265.640625 476.339844 266.484375 478.578125 C 267.574219 481.46875 268.660156 484.359375 269.75 487.25 C 270.289062 488.675781 270.828125 490.101562 271.382812 491.570312 C 272.9375 495.707031 274.472656 499.851562 276 504 C 276.777344 506.113281 277.558594 508.226562 278.359375 510.40625 C 279.988281 515.964844 280.535156 520.476562 280.5 526.25 C 280.515625 528.734375 280.515625 528.734375 280.53125 531.265625 C 279.949219 536.457031 278.929688 539.675781 276 544 C 269.75 545.5 269.75 545.5 264 546 C 264.988281 544.679688 265.980469 543.359375 267 542 C 276.46875 523.0625 264.636719 499.835938 258.5 481.25 C 257.675781 478.859375 256.851562 476.464844 256 474 C 246.101562 474 236.199219 474 226 474 C 226.660156 478.742188 227.320312 483.488281 228 488.375 C 230.621094 508.902344 230.363281 529.34375 230 550 C 227.359375 550 224.71875 550 222 550 C 221.902344 547.386719 221.804688 544.773438 221.703125 542.078125 C 220.746094 518.566406 218.9375 495.347656 216 472 C 213.523438 471.59375 213.523438 471.59375 211 471.179688 C 181.492188 465.679688 157.625 454.546875 134 436 C 131.894531 434.679688 129.792969 433.359375 127.625 432 C 94.484375 408.433594 74.109375 367.253906 66.671875 328.015625 C 58.671875 280.203125 68.859375 231.632812 96.359375 191.664062 C 125.292969 151.519531 165.230469 126.066406 214.109375 116.984375 C 227.507812 115.3125 240.5 115.640625 254 116 Z M 254 116 "/>
<path style=" stroke:none;fill-rule:nonzero;fill:rgb(16.078432%,18.431373%,31.764707%);fill-opacity:1;" d="M 280.296875 238.710938 C 284.386719 241.632812 288.195312 244.71875 292 248 C 293.238281 249.027344 294.476562 250.050781 295.75 251.109375 C 306.089844 260.425781 312.855469 270.355469 316 284 C 315.828125 287.488281 315.535156 290.96875 315.15625 294.441406 C 313.363281 311.777344 311.753906 327.808594 322.605469 342.433594 C 331.449219 352.523438 341.402344 361.324219 351.5 370.125 C 356.578125 374.769531 361.621094 379.445312 366.660156 384.132812 C 369.78125 387.011719 372.929688 389.859375 376.117188 392.667969 C 386.410156 401.851562 395.09375 410.3125 396.78125 424.617188 C 396.6875 426.683594 396.59375 428.746094 396.5 430.875 C 396.429688 432.976562 396.355469 435.078125 396.28125 437.242188 C 396.1875 438.8125 396.09375 440.382812 396 442 C 397.933594 441.445312 399.867188 440.890625 401.859375 440.320312 C 426.359375 433.4375 448.464844 431.667969 474 432 C 474 433.980469 474 435.960938 474 438 C 471.53125 438.074219 469.058594 438.148438 466.515625 438.226562 C 443.242188 439.078125 420.867188 441.609375 398 446 C 398.144531 448.210938 398.289062 450.417969 398.4375 452.695312 C 400.011719 478.480469 400.226562 504.171875 400 530 C 398.679688 530 397.359375 530 396 530 C 395.957031 528.753906 395.917969 527.507812 395.875 526.222656 C 395.441406 513.210938 394.984375 500.199219 394.511719 487.191406 C 394.335938 482.339844 394.171875 477.488281 394.011719 472.636719 C 393.777344 465.648438 393.523438 458.664062 393.265625 451.679688 C 393.199219 449.519531 393.132812 447.363281 393.0625 445.136719 C 392.449219 429.46875 391.859375 416.808594 380.554688 404.945312 C 378.140625 402.394531 378.140625 402.394531 375.679688 399.789062 C 373.789062 397.855469 371.894531 395.925781 370 394 C 368.933594 392.90625 367.867188 391.816406 366.769531 390.6875 C 359.542969 383.296875 352.257812 375.972656 344.9375 368.675781 C 341.074219 364.828125 337.226562 360.964844 333.378906 357.105469 C 330.921875 354.652344 328.464844 352.195312 326.007812 349.742188 C 324.859375 348.589844 323.710938 347.4375 322.53125 346.25 C 316.808594 340.410156 316.808594 340.410156 310 336 C 309.792969 337.445312 309.585938 338.886719 309.375 340.375 C 306.046875 353.996094 297.554688 360.90625 286 368 C 266.109375 377.683594 243.257812 382.28125 221.539062 376.1875 C 202.074219 368.492188 184.59375 357.445312 175.171875 338.234375 C 165.792969 316.070312 165.074219 296.488281 174 274 C 184.515625 252.910156 200.105469 238.722656 222 230 C 242.183594 223.640625 262.78125 227.660156 280.296875 238.710938 Z M 280.296875 238.710938 "/>
<path style=" stroke:none;fill-rule:nonzero;fill:rgb(15.686275%,17.647059%,30.980393%);fill-opacity:1;" d="M 128 432 C 134.136719 434.808594 139.566406 438.347656 145.132812 442.144531 C 165.859375 456.136719 187.589844 465.089844 212.046875 470.71875 C 214.003906 471.351562 214.003906 471.351562 216 472 C 227.03125 494.058594 222.429688 528.113281 222 552 C 220.652344 552.601562 219.300781 553.203125 217.910156 553.820312 C 191.335938 565.917969 177.363281 586.253906 161.136719 609.5625 C 156.242188 616.488281 151.132812 623.25 146 630 C 137.832031 629.621094 134.636719 628.605469 128.625 622.875 C 122.269531 614.296875 117.636719 605.265625 118.382812 594.445312 C 120.375 586.5 123.757812 580.046875 127.625 572.875 C 144.957031 539.3125 153.5625 502.300781 142.578125 465.46875 C 138.582031 453.886719 133.464844 442.964844 128 432 Z M 128 432 "/>
<path style=" stroke:none;fill-rule:nonzero;fill:rgb(39.215687%,70.19608%,94.509804%);fill-opacity:1;" d="M 189.75 355.375 C 209.855469 371.640625 228.035156 378.167969 254 376 C 270.878906 373.492188 283.96875 367.558594 298 358 C 299.980469 356.679688 301.960938 355.359375 304 354 C 303.035156 355.984375 303.035156 355.984375 302.050781 358.007812 C 299.542969 365.335938 299.296875 372.195312 299.171875 379.851562 C 299.132812 381.347656 299.09375 382.84375 299.054688 384.382812 C 298.933594 389.128906 298.84375 393.878906 298.75 398.625 C 298.671875 401.855469 298.59375 405.085938 298.515625 408.316406 C 298.324219 416.210938 298.15625 424.105469 298 432 C 293.875 433.296875 289.75 434.589844 285.625 435.875 C 283.328125 436.59375 281.03125 437.3125 278.664062 438.054688 C 243.09375 448.4375 204.21875 441.226562 172.15625 423.691406 C 162.339844 417.925781 153.503906 411.3125 145 403.75 C 143.90625 402.792969 142.816406 401.835938 141.6875 400.851562 C 136.234375 395.640625 133.988281 391.960938 131.984375 384.640625 C 132 378 132 378 137.25 372 C 175.640625 343.285156 175.640625 343.285156 189.75 355.375 Z M 189.75 355.375 "/>
<path style=" stroke:none;fill-rule:nonzero;fill:rgb(99.215686%,99.215686%,98.823529%);fill-opacity:1;" d="M 236 160 C 242.601562 160 249.199219 160 256 160 C 256 182.441406 256 204.878906 256 228 C 243.128906 228.988281 243.128906 228.988281 230 230 C 205.730469 238.089844 188.277344 251.277344 176 274 C 166.921875 296.898438 168.050781 315.871094 177.617188 338.304688 C 179.546875 342.914062 180.980469 347.128906 182 352 C 180.839844 352.363281 179.679688 352.726562 178.484375 353.101562 C 169.21875 356.082031 160.605469 359.367188 152 364 C 153.015625 358.914062 154.03125 353.886719 155.375 348.875 C 156.164062 342.71875 155.664062 341.023438 152 336 C 146.921875 333.539062 142.152344 331.511719 136.875 329.625 C 122.144531 324.144531 122.144531 324.144531 120 322 C 119.328125 314.433594 119.351562 306.839844 119.25 299.25 C 119.175781 297.117188 119.101562 294.980469 119.023438 292.78125 C 118.957031 287.027344 119.027344 281.671875 120 276 C 124.398438 271.820312 124.398438 271.820312 130 270 C 132.578125 268.84375 132.578125 268.84375 135.210938 267.664062 C 136.914062 266.992188 138.621094 266.316406 140.375 265.625 C 142.09375 264.9375 143.8125 264.25 145.585938 263.539062 C 150 262 150 262 154 262 C 156.539062 250.613281 155.429688 244.867188 150 234.625 C 143.886719 223.011719 143.886719 223.011719 144.445312 218.089844 C 147.535156 209.972656 154.464844 204.425781 160.5 198.375 C 161.839844 196.964844 163.175781 195.550781 164.554688 194.097656 C 165.867188 192.773438 167.179688 191.449219 168.53125 190.085938 C 169.722656 188.871094 170.914062 187.652344 172.140625 186.398438 C 176 184 176 184 181.136719 184.464844 C 186.683594 186.214844 191.574219 188.59375 196.75 191.25 C 206.417969 195.816406 211.773438 196.953125 222 194 C 222.363281 192.695312 222.726562 191.390625 223.101562 190.046875 C 230.023438 165.976562 230.023438 165.976562 236 160 Z M 236 160 "/>
<path style=" stroke:none;fill-rule:nonzero;fill:rgb(15.686275%,18.039216%,31.37255%);fill-opacity:1;" d="M 318 490 C 324.640625 492.902344 329.054688 496.613281 334.25 501.625 C 343.320312 509.910156 352.785156 515.128906 364 520 C 361.433594 528.007812 358.496094 535.675781 355.125 543.375 C 337.367188 585.59375 338.28125 631.839844 348 676 C 348.691406 679.996094 349.367188 683.996094 350 688 C 348.667969 687.105469 347.335938 686.210938 345.960938 685.289062 C 322.4375 669.859375 298.902344 661.410156 272 654 C 274.8125 625.917969 288.101562 603.386719 302.65625 579.707031 C 316.402344 558.136719 316.402344 558.136719 320.75 533.5 C 320.722656 531.550781 320.699219 529.601562 320.671875 527.59375 C 320.253906 521.96875 320.253906 521.96875 317.90625 517.007812 C 315.585938 510.914062 315.976562 506.8125 316.75 500.375 C 316.972656 498.421875 317.195312 496.472656 317.421875 494.460938 C 317.707031 492.253906 317.707031 492.253906 318 490 Z M 318 490 "/>
<path style=" stroke:none;fill-rule:nonzero;fill:rgb(39.607844%,70.588237%,93.333334%);fill-opacity:1;" d="M 204 388 C 208.039062 389.609375 208.039062 389.609375 211.625 391.75 C 237.675781 405.480469 270.75 402.386719 298 394 C 298 406.539062 298 419.078125 298 432 C 258.136719 444.484375 219.050781 447.453125 180.808594 427.714844 C 175.117188 424.609375 169.539062 421.367188 164 418 C 167.21875 409.757812 173.15625 404.394531 179.5 398.5 C 180.527344 397.488281 181.550781 396.472656 182.609375 395.429688 C 189.777344 388.746094 194.25 386.476562 204 388 Z M 204 388 "/>
<path style=" stroke:none;fill-rule:nonzero;fill:rgb(98.823529%,98.823529%,98.823529%);fill-opacity:1;" d="M 260.65625 271.296875 C 270.738281 275.800781 276.78125 282.34375 282 292 C 286.15625 304.472656 284.085938 314.296875 278.554688 325.828125 C 273.527344 334.035156 267.191406 338.9375 258 342 C 243.167969 343.324219 231.902344 343.425781 220 334 C 210.011719 321.121094 208.375 309.933594 210 294 C 219.945312 273.34375 238.671875 265.175781 260.65625 271.296875 Z M 260.65625 271.296875 "/>
<path style=" stroke:none;fill-rule:nonzero;fill:rgb(16.078432%,18.431373%,30.980393%);fill-opacity:1;" d="M 310 520 C 314.972656 524.972656 314.761719 526.851562 315 533.75 C 314.542969 554.386719 301.828125 570.386719 290.804688 586.996094 C 278.378906 606.164062 269.582031 627.878906 264 650 C 250.75 650.25 250.75 650.25 244 648 C 243.882812 640.082031 243.8125 632.167969 243.75 624.25 C 243.714844 622.03125 243.683594 619.816406 243.648438 617.53125 C 243.523438 596.472656 245.242188 576.148438 257.875 558.625 C 264.070312 553.949219 268.414062 552.359375 275.75 550.125 C 290.292969 545.65625 299.179688 539.425781 306.875 526.25 C 307.90625 524.1875 308.9375 522.125 310 520 Z M 310 520 "/>
<path style=" stroke:none;fill-rule:nonzero;fill:rgb(16.470589%,18.431373%,31.37255%);fill-opacity:1;" d="M 222 560 C 223.144531 576.824219 221.285156 592.355469 218.25 608.875 C 217.902344 610.769531 217.554688 612.664062 217.195312 614.613281 C 215.394531 624.011719 213.335938 633 210 642 C 202.164062 641.050781 194.332031 640.089844 186.5 639.125 C 184.277344 638.855469 182.054688 638.585938 179.765625 638.308594 C 177.625 638.042969 175.484375 637.78125 173.28125 637.507812 C 170.328125 637.144531 170.328125 637.144531 167.3125 636.777344 C 162.757812 636.109375 158.4375 635.21875 154 634 C 164.359375 612.320312 194.980469 560 222 560 Z M 222 560 "/>
<path style=" stroke:none;fill-rule:nonzero;fill:rgb(18.82353%,61.56863%,92.941177%);fill-opacity:1;" d="M 846 740 C 851.28125 740 856.558594 740 862 740 C 862 800.71875 862 861.441406 862 924 C 856.71875 924 851.441406 924 846 924 C 846 863.28125 846 802.558594 846 740 Z M 846 740 "/>
<path style=" stroke:none;fill-rule:nonzero;fill:rgb(16.470589%,18.431373%,30.980393%);fill-opacity:1;" d="M 226 474 C 235.898438 474 245.800781 474 256 474 C 273.855469 517.125 273.855469 517.125 272 536 C 268.414062 541.621094 265.960938 545.019531 260 548 C 254.90625 548.464844 249.851562 548.835938 244.75 549.125 C 243.335938 549.210938 241.925781 549.296875 240.46875 549.386719 C 236.980469 549.597656 233.488281 549.800781 230 550 C 229.949219 548.90625 229.898438 547.8125 229.847656 546.683594 C 228.730469 522.445312 227.472656 498.222656 226 474 Z M 226 474 "/>
<path style=" stroke:none;fill-rule:nonzero;fill:rgb(16.862746%,18.82353%,30.588236%);fill-opacity:1;" d="M 306 464 C 313.785156 477.300781 312.84375 487.246094 309.625 501.875 C 305.019531 519.027344 296.992188 532.03125 282 542 C 280.679688 542 279.359375 542 278 542 C 278.140625 540.539062 278.277344 539.082031 278.421875 537.578125 C 279.445312 517.847656 274.242188 502.074219 267.328125 483.800781 C 265.96875 479.90625 264.941406 476.015625 264 472 C 265.886719 471.636719 265.886719 471.636719 267.8125 471.265625 C 276.226562 469.617188 284.578125 467.914062 292.875 465.75 C 300 464 300 464 306 464 Z M 306 464 "/>
<path style=" stroke:none;fill-rule:nonzero;fill:rgb(18.431373%,20%,27.058825%);fill-opacity:1;" d="M 312 328 C 314.007812 330.011719 314.007812 330.011719 316.054688 332.066406 C 321.671875 337.683594 327.332031 343.261719 332.992188 348.835938 C 338.84375 354.609375 344.679688 360.394531 350.511719 366.183594 C 353.585938 369.226562 356.664062 372.261719 359.746094 375.296875 C 364.222656 379.699219 368.679688 384.121094 373.132812 388.546875 C 374.503906 389.886719 375.875 391.226562 377.289062 392.609375 C 386.644531 401.960938 395.171875 410.988281 396.78125 424.617188 C 396.6875 426.683594 396.59375 428.746094 396.5 430.875 C 396.429688 432.976562 396.355469 435.078125 396.28125 437.242188 C 396.1875 438.8125 396.09375 440.382812 396 442 C 397.933594 441.445312 399.867188 440.890625 401.859375 440.320312 C 426.359375 433.4375 448.464844 431.667969 474 432 C 474 433.980469 474 435.960938 474 438 C 471.53125 438.074219 469.058594 438.148438 466.515625 438.226562 C 443.242188 439.078125 420.867188 441.609375 398 446 C 398.214844 449.3125 398.214844 449.3125 398.4375 452.695312 C 400.011719 478.480469 400.226562 504.171875 400 530 C 398.679688 530 397.359375 530 396 530 C 395.957031 528.753906 395.917969 527.507812 395.875 526.222656 C 395.441406 513.210938 394.984375 500.199219 394.511719 487.191406 C 394.335938 482.339844 394.171875 477.488281 394.011719 472.636719 C 393.777344 465.648438 393.523438 458.664062 393.265625 451.679688 C 393.199219 449.519531 393.132812 447.363281 393.0625 445.136719 C 392.449219 429.464844 391.855469 416.808594 380.554688 404.9375 C 378.945312 403.234375 377.335938 401.535156 375.679688 399.78125 C 373.789062 397.851562 371.898438 395.921875 370 394 C 368.398438 392.367188 368.398438 392.367188 366.769531 390.703125 C 358.285156 382.070312 349.710938 373.527344 341.125 365 C 338.542969 362.425781 335.960938 359.855469 333.378906 357.28125 C 328.691406 352.609375 324.003906 347.941406 319.308594 343.277344 C 316.203125 340.1875 313.097656 337.097656 310 334 C 310.660156 332.019531 311.320312 330.039062 312 328 Z M 312 328 "/>
<path style=" stroke:none;fill-rule:nonzero;fill:rgb(37.64706%,67.058825%,90.980393%);fill-opacity:1;" d="M 314 510 C 321.230469 516.601562 322.503906 522.789062 323.125 532.375 C 322.890625 554.203125 309.285156 572.632812 298.328125 590.738281 C 297.050781 592.847656 297.050781 592.847656 295.75 595 C 294.902344 596.398438 294.058594 597.792969 293.183594 599.234375 C 283.25 616.027344 275.28125 634.675781 272 654 C 268.039062 653.339844 264.078125 652.679688 260 652 C 261.980469 651.011719 261.980469 651.011719 264 650 C 264.695312 645.335938 265.355469 640.667969 266 636 C 274.878906 608.683594 289.320312 584.636719 305.109375 560.804688 C 311.457031 550.253906 312.488281 541.824219 312.125 529.625 C 311.761719 514.476562 311.761719 514.476562 314 510 Z M 314 510 "/>
<path style=" stroke:none;fill-rule:nonzero;fill:rgb(20.392157%,21.568628%,31.764707%);fill-opacity:1;" d="M 236.132812 555.804688 C 238.605469 555.839844 238.605469 555.839844 241.125 555.875 C 242.777344 555.894531 244.429688 555.910156 246.132812 555.929688 C 247.410156 555.953125 248.683594 555.976562 250 556 C 249.46875 556.972656 248.9375 557.949219 248.390625 558.953125 C 235.214844 585.402344 236.992188 617.113281 236 646 C 230.058594 645.339844 224.121094 644.679688 218 644 C 218.96875 634.304688 220.636719 625.109375 222.875 615.625 C 226.125 601.074219 227.515625 586.539062 228.707031 571.691406 C 228.851562 569.945312 228.992188 568.199219 229.140625 566.398438 C 229.257812 564.828125 229.378906 563.257812 229.5 561.636719 C 230.21875 556.414062 230.839844 556.054688 236.132812 555.804688 Z M 236.132812 555.804688 "/>
<path style=" stroke:none;fill-rule:nonzero;fill:rgb(16.470589%,16.862746%,21.960784%);fill-opacity:1;" d="M 436 272 C 434.679688 273.238281 433.359375 274.476562 432 275.75 C 426.421875 284.46875 426.558594 291.894531 428 302 C 430.625 308.070312 430.625 308.070312 434 312 C 422.347656 311.046875 414.226562 307.613281 404.125 301.875 C 402.757812 301.121094 401.390625 300.367188 399.980469 299.589844 C 396.644531 297.746094 393.320312 295.875 390 294 C 392.855469 285.433594 399.128906 283.617188 406.75 279.75 C 408.808594 278.671875 408.808594 278.671875 410.90625 277.570312 C 427.003906 269.207031 427.003906 269.207031 436 272 Z M 436 272 "/>
<path style=" stroke:none;fill-rule:nonzero;fill:rgb(50.196081%,62.352943%,89.411765%);fill-opacity:1;" d="M 480 414 C 480.164062 422.359375 479.878906 429.859375 478 438 C 477.710938 440.019531 477.421875 442.042969 477.125 444.125 C 476.09375 449.503906 474.714844 453.292969 472 458 C 462.785156 455.367188 455.542969 451.964844 448 446 C 447.339844 443.359375 446.679688 440.71875 446 438 C 455.238281 438 464.480469 438 474 438 C 474 436.019531 474 434.039062 474 432 C 465.421875 432 456.839844 432 448 432 C 455.449219 423.0625 467.722656 414 480 414 Z M 480 414 "/>
<path style=" stroke:none;fill-rule:nonzero;fill:rgb(92.941177%,71.764708%,2.745098%);fill-opacity:1;" d="M 258.25 553.75 C 260.148438 553.832031 262.046875 553.914062 264 554 C 262.769531 555.523438 262.769531 555.523438 261.515625 557.078125 C 245.472656 577.570312 245.753906 598.847656 244.875 624 C 244.789062 626.3125 244.703125 628.625 244.613281 631.007812 C 244.402344 636.671875 244.199219 642.335938 244 648 C 241.359375 647.339844 238.71875 646.679688 236 646 C 234.824219 579.410156 234.824219 579.410156 248 558 C 252 554 252 554 258.25 553.75 Z M 258.25 553.75 "/>
<path style=" stroke:none;fill-rule:nonzero;fill:rgb(17.254902%,20%,32.156864%);fill-opacity:1;" d="M 306 464 C 314.867188 479.152344 312.109375 491.820312 308 508 C 306.679688 508 305.359375 508 304 508 C 301.34375 504.695312 301.34375 504.695312 298.359375 500.125 C 297.289062 498.5 296.21875 496.875 295.117188 495.203125 C 293.449219 492.628906 293.449219 492.628906 291.75 490 C 290.625 488.28125 289.496094 486.566406 288.335938 484.796875 C 285.542969 480.539062 282.765625 476.273438 280 472 C 284.316406 467.683594 286.113281 467.101562 291.875 465.75 C 293.253906 465.414062 294.632812 465.078125 296.054688 464.734375 C 300 464 300 464 306 464 Z M 306 464 "/>
<path style=" stroke:none;fill-rule:nonzero;fill:rgb(94.901961%,94.901961%,95.686275%);fill-opacity:1;" d="M 224 558 C 225.980469 558 227.960938 558 230 558 C 231.242188 587.011719 226.445312 614.269531 218 642 C 215.359375 642 212.71875 642 210 642 C 211.171875 634.679688 212.480469 627.398438 213.875 620.117188 C 217.40625 601.519531 220.789062 583.277344 221.648438 564.335938 C 222 560 222 560 224 558 Z M 224 558 "/>
<path style=" stroke:none;fill-rule:nonzero;fill:rgb(97.254902%,59.215689%,50.196081%);fill-opacity:1;" d="M 842 500 C 836.839844 502.636719 831.671875 505.257812 826.5 507.875 C 825.039062 508.621094 823.582031 509.367188 822.078125 510.136719 C 820.660156 510.851562 819.242188 511.566406 817.78125 512.304688 C 816.484375 512.964844 815.183594 513.625 813.84375 514.304688 C 805.328125 518.058594 797.765625 518.21875 788.5 518.125 C 786.160156 518.105469 783.816406 518.089844 781.40625 518.070312 C 779.621094 518.046875 777.839844 518.023438 776 518 C 776 512.71875 776 507.441406 776 502 C 778.195312 502.03125 778.195312 502.03125 780.429688 502.0625 C 787.078125 502.148438 793.726562 502.199219 800.375 502.25 C 803.828125 502.300781 803.828125 502.300781 807.347656 502.351562 C 809.570312 502.363281 811.796875 502.378906 814.085938 502.390625 C 817.148438 502.421875 817.148438 502.421875 820.273438 502.453125 C 826.074219 502.28125 826.074219 502.28125 831.371094 499.851562 C 836 498 836 498 842 500 Z M 842 500 "/>
<path style=" stroke:none;fill-rule:nonzero;fill:rgb(94.117647%,94.117647%,94.901961%);fill-opacity:1;" d="M 216 472 C 218.640625 472 221.28125 472 224 472 C 224.636719 474.621094 225.257812 477.246094 225.875 479.875 C 226.398438 482.066406 226.398438 482.066406 226.929688 484.304688 C 229.800781 499.582031 230.265625 514.609375 230.125 530.125 C 230.117188 532.046875 230.105469 533.96875 230.097656 535.949219 C 230.074219 540.632812 230.042969 545.316406 230 550 C 227.359375 550 224.71875 550 222 550 C 221.851562 546.078125 221.851562 546.078125 221.703125 542.078125 C 220.746094 518.566406 218.9375 495.347656 216 472 Z M 216 472 "/>
<path style=" stroke:none;fill-rule:nonzero;fill:rgb(16.470589%,21.176471%,29.803923%);fill-opacity:1;" d="M 204 388 C 208.039062 389.609375 208.039062 389.609375 211.625 391.75 C 236.125 404.664062 268.0625 402.910156 294.015625 395.3125 C 295.332031 394.878906 296.644531 394.445312 298 394 C 296 400 296 400 292.398438 401.898438 C 265.859375 409.699219 235.285156 409.703125 210 398 C 208.679688 397.210938 207.359375 396.421875 206 395.609375 C 200.308594 393.320312 197.765625 393.871094 192 396 C 187.617188 399.609375 183.636719 403.152344 179.625 407.125 C 168.480469 418 168.480469 418 164 418 C 167.21875 409.757812 173.15625 404.394531 179.5 398.5 C 180.527344 397.488281 181.550781 396.472656 182.609375 395.429688 C 189.777344 388.746094 194.25 386.476562 204 388 Z M 204 388 "/>
<path style=" stroke:none;fill-rule:nonzero;fill:rgb(97.254902%,59.215689%,50.196081%);fill-opacity:1;" d="M 694 408 C 695.980469 408.660156 697.960938 409.320312 700 410 C 710.175781 410.660156 720 410.050781 730 408 C 730.660156 410.640625 731.320312 413.28125 732 416 C 724.265625 421.417969 719.03125 422.777344 709.625 422.625 C 707.535156 422.617188 705.441406 422.609375 703.289062 422.601562 C 698 422 698 422 694 418 C 693.75 412.75 693.75 412.75 694 408 Z M 694 408 "/>
<path style=" stroke:none;fill-rule:nonzero;fill:rgb(15.686275%,16.078432%,21.176471%);fill-opacity:1;" d="M 442 274 C 444.691406 279.382812 444.410156 283.742188 444.5 289.75 C 444.550781 291.847656 444.601562 293.945312 444.65625 296.109375 C 443.933594 302.609375 442.363281 305.246094 438 310 C 431.738281 303.933594 429.339844 299.453125 429 290.875 C 429.285156 284.285156 429.726562 282.371094 433.75 276.875 C 438 274 438 274 442 274 Z M 442 274 "/>
<path style=" stroke:none;fill-rule:nonzero;fill:rgb(24.313726%,27.450982%,38.431373%);fill-opacity:1;" d="M 474 432 C 474 433.980469 474 435.960938 474 438 C 471.4375 438.097656 468.875 438.195312 466.234375 438.296875 C 445.910156 439.148438 426.078125 440.574219 406 444 C 405.339844 442.679688 404.679688 441.359375 404 440 C 427.703125 432.835938 449.292969 431.679688 474 432 Z M 474 432 "/>
<path style=" stroke:none;fill-rule:nonzero;fill:rgb(10.588235%,9.411765%,11.372549%);fill-opacity:1;" d="M 706 316 C 709.75 316.625 709.75 316.625 714 318 C 718.652344 324.976562 718.835938 327.792969 718 336 C 715 340.75 715 340.75 712 344 C 708.125 343.375 708.125 343.375 704 342 C 701.648438 334.941406 701.601562 329.410156 702 322 C 703.320312 320.019531 704.640625 318.039062 706 316 Z M 706 316 "/>
<path style=" stroke:none;fill-rule:nonzero;fill:rgb(38.82353%,67.058825%,89.019608%);fill-opacity:1;" d="M 284 468 C 285.980469 468 287.960938 468 290 468 C 293 472.09375 293 472.09375 296 477.5 C 298.914062 482.695312 301.660156 487.570312 305.351562 492.25 C 309.070312 497.515625 308.429688 501.726562 308 508 C 306.679688 508 305.359375 508 304 508 C 301.34375 504.695312 301.34375 504.695312 298.359375 500.125 C 297.289062 498.5 296.21875 496.875 295.117188 495.203125 C 293.449219 492.628906 293.449219 492.628906 291.75 490 C 290.625 488.28125 289.496094 486.566406 288.335938 484.796875 C 285.542969 480.539062 282.765625 476.273438 280 472 C 281.320312 470.679688 282.640625 469.359375 284 468 Z M 284 468 "/>
<path style=" stroke:none;fill-rule:nonzero;fill:rgb(21.176471%,23.529412%,31.37255%);fill-opacity:1;" d="M 396 446 C 396.660156 446 397.320312 446 398 446 C 399.832031 474.027344 400.246094 501.917969 400 530 C 398.679688 530 397.359375 530 396 530 C 392.300781 468.652344 392.300781 468.652344 396 446 Z M 396 446 "/>
<path style=" stroke:none;fill-rule:nonzero;fill:rgb(19.607843%,21.568628%,29.019609%);fill-opacity:1;" d="M 312 328 C 328.667969 344.667969 345.332031 361.332031 362 378 C 360.679688 379.320312 359.359375 380.640625 358 382 C 342 366 326 350 310 334 C 310.660156 332.019531 311.320312 330.039062 312 328 Z M 312 328 "/>
<path style=" stroke:none;fill-rule:nonzero;fill:rgb(89.803922%,71.764708%,11.372549%);fill-opacity:1;" d="M 434 272 C 435.980469 272.660156 437.960938 273.320312 440 274 C 438.019531 274.660156 436.039062 275.320312 434 276 C 431.3125 284.0625 431.082031 291.5625 432 300 C 434.71875 304.800781 434.71875 304.800781 438 308 C 438 309.320312 438 310.640625 438 312 C 431.675781 309.261719 430.015625 308.023438 426 302 C 424.550781 292.046875 424.519531 284.3125 430 275.75 C 431.320312 274.511719 432.640625 273.273438 434 272 Z M 434 272 "/>
<path style=" stroke:none;fill-rule:nonzero;fill:rgb(18.039216%,23.529412%,32.941177%);fill-opacity:1;" d="M 298 394 C 297.339844 395.980469 296.679688 397.960938 296 400 C 280.019531 407.820312 263.117188 406.074219 246 404 C 246 403.339844 246 402.679688 246 402 C 247.789062 401.925781 249.578125 401.851562 251.421875 401.773438 C 265.039062 401.03125 277.304688 399.710938 290.21875 395.242188 C 294 394 294 394 298 394 Z M 298 394 "/>
<path style=" stroke:none;fill-rule:nonzero;fill:rgb(21.960784%,24.705882%,32.941177%);fill-opacity:1;" d="M 312 328 C 318.519531 334.339844 324.445312 340.796875 330 348 C 322.820312 348 321.78125 346.671875 316.625 342 C 315.378906 340.886719 314.132812 339.773438 312.851562 338.625 C 311.910156 337.757812 310.96875 336.890625 310 336 C 310.660156 333.359375 311.320312 330.71875 312 328 Z M 312 328 "/>
<path style=" stroke:none;fill-rule:nonzero;fill:rgb(81.960785%,70.980394%,72.156864%);fill-opacity:1;" d="M 742 568 C 743.320312 568.660156 744.640625 569.320312 746 570 C 743.894531 576.554688 740.726562 579.210938 735 582.625 C 732.691406 583.738281 730.378906 584.851562 728 586 C 726.679688 585.339844 725.359375 584.679688 724 584 C 729.941406 578.71875 735.878906 573.441406 742 568 Z M 742 568 "/>
<path style=" stroke:none;fill-rule:nonzero;fill:rgb(81.176472%,65.098041%,11.764706%);fill-opacity:1;" d="M 428 286 C 428.660156 286 429.320312 286 430 286 C 430.363281 287.808594 430.363281 287.808594 430.734375 289.65625 C 431.070312 291.253906 431.40625 292.851562 431.75 294.5 C 432.074219 296.078125 432.398438 297.65625 432.734375 299.28125 C 433.984375 303.9375 435.695312 307.78125 438 312 C 430.25 308.25 430.25 308.25 428 306 C 427.855469 302.628906 427.832031 299.25 427.875 295.875 C 427.894531 294.035156 427.910156 292.199219 427.929688 290.304688 C 427.953125 288.882812 427.976562 287.464844 428 286 Z M 428 286 "/>
</g>
</svg>
